<svg width="126" height="31" viewBox="0 0 126 31" fill="none" xmlns="http://www.w3.org/2000/svg">
<g clip-path="url(#clip0_556_24753)">
<path d="M30.8613 15.3658C30.8601 12.5545 30.0693 9.8002 28.5791 7.4167C27.0887 5.0332 24.9588 3.11646 22.4322 1.88498C19.9055 0.653506 17.0837 0.156842 14.2886 0.451602C11.4934 0.746361 8.83726 1.8207 6.62294 3.55212C4.40861 5.28355 2.72519 7.6024 1.76458 10.2444C0.80398 12.8863 0.604833 15.7451 1.18985 18.4947C1.77487 21.2445 3.12052 23.7744 5.0734 25.7962C7.02627 27.8181 9.50778 29.2505 12.2351 29.9301V19.9531H9.14133V15.3658H12.2351V13.3929C12.2351 8.28436 14.5488 5.91762 19.5588 5.91762C20.6561 5.93345 21.749 6.0591 22.8213 6.2927V10.4486C22.4688 10.4111 21.8538 10.3923 21.0888 10.3923C18.6288 10.3923 17.6801 11.3262 17.6801 13.7493V15.3696H22.5776L21.7376 19.9567H17.6801V30.2638C21.3172 29.8195 24.6661 28.0588 27.0944 25.3142C29.5228 22.5696 30.8627 19.0308 30.8613 15.3658Z" fill="#0766FF"/>
<path d="M21.7388 19.9532L22.5788 15.366H17.6813V13.7457C17.6813 11.3227 18.6301 10.3887 21.0901 10.3887C21.8401 10.3887 22.4701 10.3887 22.8226 10.445V6.28915C21.7503 6.05554 20.6574 5.9299 19.5601 5.91406C14.5501 5.91406 12.2363 8.28456 12.2363 13.3893V15.366H9.14258V19.9495H12.2363V29.9265C13.4225 30.2213 14.6403 30.3699 15.8626 30.3691C16.4705 30.3689 17.0778 30.3326 17.6813 30.2603V19.9532H21.7388Z" fill="white"/>
<path d="M92.6904 29.2841V23.3337H95.2136C95.68 23.3129 96.1468 23.3671 96.5958 23.4944C96.8838 23.6014 97.1272 23.8024 97.2869 24.0649C97.4628 24.3451 97.5535 24.6703 97.5481 25.001C97.5585 25.4069 97.415 25.8016 97.1463 26.106C96.8314 26.42 96.4161 26.6134 95.9731 26.6524C96.2086 26.7873 96.4236 26.9551 96.6119 27.1506C96.8677 27.4512 97.0963 27.7739 97.2949 28.1149L98.0222 29.276H96.5877L95.72 27.9823C95.5277 27.6791 95.317 27.3878 95.0891 27.1105C94.9909 26.9989 94.8667 26.9134 94.7275 26.8613C94.531 26.8095 94.3278 26.7878 94.1249 26.7971H93.8758V29.2841H92.6904ZM93.8958 25.8569H94.7838C95.1445 25.8768 95.5063 25.8511 95.8606 25.7805C95.9976 25.7373 96.1163 25.6497 96.1981 25.5314C96.281 25.3978 96.323 25.2426 96.3186 25.0855C96.3273 24.909 96.27 24.7357 96.1579 24.5992C96.039 24.4724 95.8802 24.3901 95.7079 24.3662C95.6115 24.3662 95.3061 24.3462 94.832 24.3462H93.8758L93.8958 25.8569Z" fill="#707070"/>
<path d="M101.159 27.9055L102.312 28.0782C102.19 28.4614 101.947 28.7951 101.621 29.0305C101.27 29.2571 100.858 29.3707 100.44 29.3559C100.124 29.3793 99.8063 29.3244 99.5162 29.1962C99.2261 29.0679 98.972 28.8703 98.7764 28.6207C98.4798 28.1846 98.3307 27.6651 98.3505 27.138C98.3159 26.5281 98.5173 25.9281 98.913 25.4627C99.089 25.27 99.3041 25.117 99.5438 25.0137C99.7834 24.9105 100.042 24.8594 100.303 24.8639C100.587 24.8498 100.87 24.8992 101.132 25.0083C101.394 25.1174 101.628 25.2836 101.818 25.4948C102.229 26.0552 102.418 26.7479 102.348 27.4394H99.4996C99.4864 27.732 99.5839 28.019 99.7728 28.243C99.8563 28.3341 99.9583 28.4063 100.072 28.4547C100.186 28.5033 100.308 28.5269 100.432 28.5243C100.594 28.5294 100.753 28.4783 100.882 28.3796C101.022 28.2548 101.119 28.0888 101.159 27.9055ZM101.223 26.7523C101.235 26.4792 101.145 26.2115 100.97 26.001C100.895 25.9197 100.803 25.8549 100.702 25.8107C100.6 25.7664 100.49 25.7437 100.38 25.7439C100.263 25.7417 100.147 25.765 100.04 25.8122C99.9331 25.8594 99.8379 25.9293 99.7608 26.0171C99.5907 26.2228 99.5059 26.486 99.5237 26.7523H101.223Z" fill="#707070"/>
<path d="M104.467 29.2839L102.735 24.9807H103.941L104.744 27.1745L104.977 27.9098C105.042 27.7209 105.078 27.6004 105.094 27.5401C105.11 27.4798 105.174 27.2991 105.218 27.1745L106.022 24.9807H107.195L105.492 29.2839H104.467Z" fill="#707070"/>
<path d="M107.897 24.3902V23.3335H109.038V24.3902H107.897ZM107.897 29.276V24.9728H109.038V29.284L107.897 29.276Z" fill="#707070"/>
<path d="M112.695 27.9053L113.832 28.0942C113.71 28.4774 113.468 28.8111 113.141 29.0464C112.79 29.2731 112.378 29.3867 111.96 29.3719C111.644 29.3953 111.327 29.3404 111.037 29.2122C110.747 29.0839 110.493 28.8863 110.297 28.6367C110 28.2005 109.851 27.6811 109.871 27.1541C109.836 26.5441 110.037 25.9441 110.434 25.4786C110.612 25.2822 110.83 25.1265 111.074 25.0224C111.319 24.9185 111.582 24.8685 111.848 24.8759C112.131 24.8618 112.415 24.9111 112.676 25.0202C112.939 25.1294 113.172 25.2956 113.363 25.5067C113.773 26.0672 113.962 26.7599 113.893 27.4514H111.04C111.027 27.7441 111.125 28.0309 111.313 28.2549C111.397 28.346 111.499 28.4182 111.612 28.4668C111.726 28.5152 111.849 28.5389 111.972 28.5362C112.134 28.5407 112.293 28.4897 112.422 28.3916C112.564 28.2631 112.659 28.0926 112.695 27.9053ZM112.76 26.7523C112.772 26.4792 112.682 26.2114 112.507 26.0009C112.431 25.9154 112.339 25.8469 112.235 25.8C112.131 25.7532 112.018 25.7288 111.904 25.7288C111.79 25.7288 111.678 25.7532 111.574 25.8C111.47 25.8469 111.377 25.9154 111.302 26.0009C111.131 26.2067 111.047 26.4698 111.065 26.7362L112.76 26.7523Z" fill="#707070"/>
<path d="M115.619 29.2839L114.262 24.9807H115.366L116.17 27.7932L116.909 24.9807H118.006L118.725 27.7932L119.529 24.9807H120.65L119.292 29.2839H118.199L117.456 26.5155L116.728 29.2839H115.619Z" fill="#707070"/>
<path d="M120.87 28.0461L122.014 27.8732C122.047 28.0713 122.152 28.2506 122.308 28.3754C122.492 28.5018 122.713 28.5627 122.935 28.5482C123.167 28.5648 123.399 28.5087 123.598 28.3875C123.646 28.3527 123.685 28.3066 123.71 28.2534C123.736 28.2001 123.749 28.1413 123.747 28.0822C123.748 28.0431 123.742 28.0041 123.729 27.9674C123.715 27.9309 123.693 27.8975 123.667 27.8692C123.552 27.7897 123.422 27.7375 123.284 27.7165C122.679 27.6216 122.09 27.4346 121.541 27.162C121.379 27.0588 121.247 26.9154 121.157 26.7456C121.068 26.5757 121.024 26.3856 121.031 26.1938C121.03 26.014 121.068 25.8363 121.145 25.6736C121.222 25.511 121.333 25.3674 121.472 25.2536C121.869 24.9696 122.353 24.8356 122.838 24.8759C123.295 24.8427 123.751 24.9417 124.152 25.1611C124.445 25.3643 124.655 25.667 124.743 26.0129L123.67 26.2098C123.637 26.0477 123.543 25.9042 123.409 25.8081C123.244 25.7062 123.052 25.6585 122.859 25.6715C122.637 25.6541 122.414 25.6986 122.216 25.8C122.176 25.8237 122.144 25.8573 122.122 25.8975C122.099 25.9377 122.087 25.983 122.087 26.029C122.087 26.0698 122.098 26.11 122.117 26.1458C122.138 26.1816 122.165 26.2119 122.2 26.234C122.538 26.3878 122.897 26.4959 123.265 26.5554C123.72 26.6287 124.153 26.8015 124.534 27.0616C124.653 27.1671 124.748 27.298 124.81 27.4447C124.872 27.5915 124.9 27.7503 124.891 27.9093C124.891 28.1051 124.846 28.2981 124.76 28.4741C124.675 28.65 124.55 28.8045 124.397 28.9259C123.977 29.239 123.458 29.3902 122.935 29.3518C122.445 29.3774 121.959 29.2526 121.541 28.9942C121.209 28.7712 120.97 28.4337 120.87 28.0461Z" fill="#707070"/>
<path d="M114.251 21.5255H117.244V16.684L121.422 21.5255H125.084L120.221 15.9446L124.376 11.1232H121.041L117.244 15.583V5.71924L114.251 6.12102V21.5255ZM107.352 10.838C104.03 10.838 101.727 13.0719 101.727 16.3143C101.727 19.5567 104.038 21.7866 107.352 21.7866C110.667 21.7866 112.977 19.5527 112.977 16.3143C112.977 13.0759 110.667 10.838 107.352 10.838ZM107.352 19.2393C105.81 19.2393 104.757 18.0339 104.757 16.3143C104.757 14.5946 105.81 13.3893 107.352 13.3893C108.895 13.3893 109.944 14.5946 109.944 16.3143C109.944 18.0339 108.891 19.2393 107.352 19.2393ZM95.1905 10.838C91.8677 10.838 89.5655 13.0719 89.5655 16.3143C89.5655 19.5567 91.8757 21.7866 95.1905 21.7866C98.5052 21.7866 100.815 19.5527 100.815 16.3143C100.815 13.0759 98.5052 10.838 95.1905 10.838ZM95.1905 19.2393C93.6476 19.2393 92.5948 18.0339 92.5948 16.3143C92.5948 14.5946 93.6476 13.3893 95.1905 13.3893C96.7333 13.3893 97.782 14.5946 97.782 16.3143C97.782 18.0339 96.7293 19.2393 95.1905 19.2393ZM83.7355 10.838C83.1096 10.8119 82.4867 10.9383 81.9204 11.2063C81.3542 11.4744 80.8616 11.8761 80.485 12.3769V5.71924L77.4878 6.12102V21.5335H80.1436L80.1998 19.9264C80.5678 20.5262 81.09 21.0163 81.7118 21.3456C82.3338 21.675 83.0326 21.8314 83.7355 21.7987C86.5762 21.7987 88.6574 19.4925 88.6574 16.3264C88.6574 13.1603 86.5842 10.85 83.7355 10.85V10.838ZM83.0284 19.2393C81.4895 19.2393 80.4368 18.0339 80.4368 16.3143C80.4368 14.5946 81.4895 13.3893 83.0284 13.3893C84.5672 13.3893 85.6239 14.5946 85.6239 16.3143C85.6239 18.0339 84.5672 19.2393 83.0284 19.2393ZM71.4931 19.3719C69.9061 19.3719 68.765 18.6326 68.3753 17.363H75.748C75.8211 16.98 75.8627 16.5917 75.8725 16.2018C75.8725 12.8509 73.9962 10.838 70.8462 10.838C67.6962 10.838 65.4623 13.0719 65.4623 16.3143C65.4623 19.5567 67.7686 21.7866 71.1957 21.7866C72.9677 21.7866 74.6913 21.196 75.7681 20.2117L74.6913 18.3112C73.7601 18.9978 72.634 19.3695 71.477 19.3719H71.4931ZM70.8261 13.1643C72.2082 13.1643 73.0923 14.008 73.0923 15.3098H68.3109C68.5962 13.9277 69.4882 13.1562 70.8221 13.1562L70.8261 13.1643ZM60.7814 21.7907C62.3138 21.8 63.7922 21.2254 64.9159 20.1835L63.7467 18.2148C62.9917 18.8321 62.0537 19.1825 61.0788 19.2112C59.4194 19.2112 58.3105 18.0501 58.3105 16.3305C58.3105 14.6108 59.4194 13.4496 61.0788 13.4496C61.9548 13.4617 62.806 13.7422 63.5177 14.2532L64.723 12.2442C63.6235 11.3233 62.2317 10.8247 60.7975 10.838C57.5471 10.838 55.2489 13.1041 55.2489 16.3143C55.2489 19.5246 57.523 21.7907 60.7694 21.7907H60.7814ZM51.2673 11.1072L51.215 12.7144C50.8498 12.1111 50.3286 11.6176 49.7063 11.286C49.0839 10.9543 48.3836 10.7967 47.6793 10.83C44.8266 10.83 42.7573 13.1362 42.7573 16.3063C42.7573 19.4764 44.8386 21.7787 47.6793 21.7787C48.3828 21.8118 49.0822 21.6551 49.7043 21.3249C50.3263 20.9948 50.8481 20.5035 51.215 19.9023L51.2673 21.5094H53.923V11.1072H51.2673ZM48.3743 19.2393C46.8355 19.2393 45.7828 18.0339 45.7828 16.3143C45.7828 14.5946 46.8355 13.3893 48.3743 13.3893C49.9132 13.3893 50.9698 14.5946 50.9698 16.3143C50.9698 18.0339 49.9091 19.2393 48.3743 19.2393ZM42.5203 11.1273H39.8284V10.2353C39.8284 8.9054 40.3507 8.39513 41.7007 8.39513C42.1025 8.39513 42.4601 8.39512 42.653 8.42325V6.1371C42.0649 6.01213 41.4661 5.94486 40.865 5.9362C38.1127 5.9362 36.8471 7.23397 36.8471 10.0384V11.1232H35.1436V13.6384H36.8471V21.5214H39.8364V13.6425H42.0462L42.5203 11.1273Z" fill="#0766FF"/>
</g>
<defs>
<clipPath id="clip0_556_24753">
<rect width="124.286" height="30" fill="white" transform="translate(0.857422 0.362061)"/>
</clipPath>
</defs>
</svg>
