<svg width="92" height="31" viewBox="0 0 92 31" fill="none" xmlns="http://www.w3.org/2000/svg">
<g clip-path="url(#clip0_556_24741)">
<path d="M67.5124 21.9982C67.4854 21.9982 67.4375 22.0132 67.4135 22.0402C65.5655 23.9032 63.3784 24.0262 61.0804 23.1592C57.2494 21.7102 55.3294 17.1862 56.8804 13.3792C58.0804 10.4302 60.6695 8.61817 63.6635 8.66317C65.0615 8.68417 66.3154 9.07417 67.3144 10.1122C67.3774 10.1782 67.4375 10.2952 67.5545 10.2442C67.6715 10.1932 67.6145 10.0672 67.6175 9.97717C67.6535 9.11617 67.6535 9.11617 68.5385 9.11917C69.1385 9.11917 69.7565 9.11917 70.3655 9.11917C70.6505 9.11917 70.7584 9.18517 70.7554 9.49417C70.7554 13.9462 70.7554 18.3982 70.7554 22.8532C70.7611 24.0475 70.5381 25.2318 70.0984 26.3422C69.7652 27.2479 69.214 28.0576 68.4935 28.6996C67.773 29.3416 66.9054 29.7962 65.9675 30.0232C63.2675 30.7342 60.7895 30.3742 58.6745 28.4182C58.0291 27.7974 57.4989 27.0671 57.1085 26.2612C56.9645 25.9612 57.0365 25.8772 57.3065 25.7722C58.0325 25.4932 58.7554 25.1992 59.4664 24.8722C59.7664 24.7462 59.8895 24.7732 60.0425 25.0762C60.6155 26.2042 61.4825 27.0142 62.7425 27.2752C64.8755 27.7102 67.0834 26.7712 67.5034 24.1282C67.5879 23.4809 67.617 22.8275 67.5905 22.1752C67.5875 22.1242 67.6024 22.0492 67.5124 21.9982ZM59.6675 15.7942C59.6675 17.1262 59.9254 18.0652 60.5074 18.9082C60.877 19.4818 61.3907 19.9485 61.997 20.2615C62.6034 20.5745 63.2813 20.7229 63.9629 20.692C64.6446 20.661 65.3063 20.4517 65.8817 20.085C66.4572 19.7183 66.9264 19.207 67.2425 18.6022C67.8426 17.4444 67.9932 16.1055 67.6655 14.8432C67.1225 12.3802 64.4974 10.9282 62.2984 11.9302C61.5361 12.2549 60.8829 12.7916 60.4166 13.4766C59.9502 14.1615 59.6902 14.9659 59.6675 15.7942Z" fill="#0686F4"/>
<path d="M31.491 23.6512C29.5018 23.6715 27.5861 22.9007 26.1652 21.5086C24.7444 20.1164 23.9347 18.2168 23.9145 16.2277C23.8942 14.2385 24.6649 12.3228 26.0571 10.902C27.4492 9.48104 29.3488 8.67141 31.338 8.65112C35.592 8.65112 39.018 11.9512 39.024 16.0552C39.0367 17.0509 38.851 18.0392 38.4778 18.9625C38.1045 19.8857 37.5511 20.7253 36.8499 21.4324C36.1487 22.1395 35.3137 22.6998 34.3936 23.0808C33.4735 23.4617 32.4868 23.6556 31.491 23.6512ZM35.691 16.1272C35.673 15.9412 35.67 15.6982 35.625 15.4642C35.571 15.1593 35.4958 14.8586 35.4 14.5642C34.335 11.4772 30.549 10.6642 28.422 13.0342C27.6956 13.8615 27.2791 14.9154 27.2435 16.0157C27.208 17.1161 27.5556 18.1946 28.227 19.0672C28.8382 19.892 29.7434 20.45 30.7549 20.6254C31.7665 20.8008 32.8067 20.5801 33.66 20.0092C35.013 19.1122 35.619 17.7832 35.688 16.1272H35.691Z" fill="#FA4234"/>
<path d="M47.7217 8.65399C49.1904 8.67982 50.6191 9.13635 51.8306 9.96691C53.0422 10.7975 53.9831 11.9656 54.5367 13.3261C55.0904 14.6867 55.2323 16.1798 54.9449 17.6203C54.6575 19.0608 53.9534 20.3852 52.9201 21.4291C51.8867 22.4731 50.5695 23.1906 49.132 23.4926C47.6945 23.7946 46.2 23.6679 44.8339 23.1282C43.4678 22.5884 42.2902 21.6594 41.4474 20.4564C40.6045 19.2534 40.1335 17.8293 40.0927 16.361C40.0646 15.3479 40.2421 14.3395 40.6146 13.3969C40.987 12.4543 41.5466 11.5969 42.2596 10.8766C42.9727 10.1563 43.8243 9.58794 44.7631 9.20593C45.7019 8.82393 46.7084 8.63617 47.7217 8.65399ZM51.8677 16.109C51.8828 15.2996 51.6753 14.5016 51.2677 13.802C50.3317 12.104 48.2407 11.261 46.5127 11.813C43.9387 12.641 42.7777 15.689 43.8517 18.068C44.8357 20.255 47.0347 21.203 49.1887 20.381C50.7817 19.763 51.8677 18.047 51.8677 16.109Z" fill="#FBBD09"/>
<path d="M85.2608 23.627C83.3078 23.582 81.7838 23.375 80.4608 22.427C77.8208 20.51 76.8098 17.885 77.3288 14.723C77.7938 11.885 79.4288 9.92297 82.1888 8.95997C84.6398 8.11997 88.0568 8.97498 89.6588 11.426C90.1674 12.1938 90.6014 13.0086 90.9548 13.859C91.0898 14.18 91.0118 14.318 90.6908 14.459C87.6488 15.701 84.6088 16.953 81.5708 18.215C81.0668 18.422 81.0818 18.419 81.3668 18.878C81.8509 19.7074 82.633 20.3211 83.5538 20.594C84.158 20.7645 84.7935 20.7926 85.4103 20.676C86.0272 20.5594 86.6086 20.3013 87.1088 19.922C87.5271 19.6361 87.8866 19.2725 88.1678 18.851C88.3268 18.593 88.4528 18.581 88.6868 18.749C89.3318 19.211 89.9858 19.667 90.6548 20.093C90.9368 20.273 90.9248 20.42 90.7388 20.654C89.2388 22.55 87.2948 23.555 85.2608 23.627ZM80.5298 15.542C80.4668 15.887 80.6618 15.821 80.8958 15.722C82.8998 14.897 84.9008 14.066 86.8958 13.25C87.1568 13.145 87.1808 13.034 87.0308 12.818C86.6544 12.2635 86.0876 11.8663 85.4378 11.702C83.0678 11.078 80.6198 12.977 80.5298 15.542Z" fill="#FA4234"/>
<path d="M72.6777 12.182C72.6777 8.67796 72.6777 5.17396 72.6777 1.68196C72.6777 1.32496 72.7737 1.22897 73.1277 1.24097C73.9047 1.26797 74.6877 1.26797 75.4677 1.24097C75.8067 1.24097 75.8907 1.33697 75.8907 1.66997C75.8907 4.90397 75.8907 8.13797 75.8907 11.372C75.8907 15.158 75.8907 18.947 75.8907 22.733C75.8907 23.117 75.7887 23.213 75.4167 23.198C74.6367 23.171 73.8567 23.174 73.0767 23.198C72.7467 23.198 72.6807 23.096 72.6807 22.787C72.6847 19.247 72.6837 15.712 72.6777 12.182Z" fill="#03A84A"/>
<path d="M6.56645 18.6801C7.48323 19.3488 8.51253 19.8477 9.60546 20.1531C12.7885 20.9091 15.6055 20.3151 17.8795 17.8401C18.7315 16.9131 19.1215 15.7641 19.3465 14.5401C19.4095 14.1951 19.2025 14.2131 18.9745 14.2131C16.7335 14.2131 14.4925 14.2131 12.2515 14.2131C11.8795 14.2131 11.7625 14.1351 11.7775 13.7481C11.8105 12.9411 11.7955 12.1311 11.7775 11.3241C11.7775 11.0841 11.8495 11.0031 12.0775 11.0031C15.4535 11.0031 18.8295 11.0031 22.2055 11.0031C22.4125 11.0031 22.5325 11.0421 22.5685 11.3031C22.8258 12.8664 22.741 14.4669 22.3199 15.9942C21.8988 17.5216 21.1515 18.9395 20.1295 20.1501C18.6025 22.0161 16.5295 22.9581 14.2165 23.4021C10.8355 24.0471 7.70045 23.4501 4.86245 21.4641C3.54776 20.5326 2.44181 19.3371 1.61526 17.954C0.788704 16.5709 0.259718 15.0306 0.0620912 13.4316C-0.135535 11.8325 0.00254315 10.2097 0.467507 8.66703C0.932471 7.12433 1.7141 5.69557 2.76245 4.47203C4.49184 2.45777 6.84854 1.08383 9.4534 0.571234C12.0583 0.0586431 14.7598 0.437209 17.1235 1.64603C18.0107 2.09578 18.8273 2.67289 19.5475 3.35903C19.7395 3.53903 19.7395 3.64103 19.5475 3.82403C18.9315 4.40803 18.3265 5.00803 17.7325 5.62403C17.5405 5.82503 17.4325 5.78003 17.2525 5.62403C14.3305 2.92403 9.95345 3.09803 7.19646 4.95203C5.66012 5.98624 4.5035 7.49382 3.90243 9.24557C3.30137 10.9974 3.28873 12.8975 3.86645 14.6571C4.31882 16.1304 5.17399 17.448 6.33545 18.4611C6.40513 18.5298 6.47027 18.6029 6.53046 18.6801C5.90646 18.6801 5.67845 18.1191 5.38445 17.7801C4.63651 16.9353 4.08073 15.9384 3.75545 14.8581C3.61445 14.3361 3.36545 13.8171 3.34745 13.2921C3.29639 12.5439 3.29639 11.7932 3.34745 11.0451C3.43569 10.1616 3.66987 9.29885 4.04045 8.49203C4.68277 7.00038 5.74619 5.72844 7.10045 4.83203C8.1582 4.1448 9.34394 3.67846 10.5865 3.46103C11.713 3.27157 12.8674 3.33303 13.9675 3.64103C15.1816 3.95357 16.3096 4.53603 17.2675 5.34503C17.3036 5.38829 17.3493 5.4226 17.401 5.44529C17.4526 5.46797 17.5088 5.47842 17.5651 5.4758C17.6215 5.47319 17.6765 5.45759 17.7258 5.43022C17.7751 5.40285 17.8174 5.36445 17.8495 5.31803C18.3385 4.82003 18.8275 4.32803 19.3285 3.84503C19.4965 3.68003 19.4995 3.57503 19.3285 3.39503C18.9258 2.97969 18.4674 2.62228 17.9665 2.33303C16.8335 1.59035 15.567 1.0748 14.2375 0.815026C13.1418 0.597099 12.022 0.525475 10.9075 0.602026C9.94775 0.688242 8.99725 0.856864 8.06645 1.10603C7.26413 1.36758 6.49807 1.72945 5.78645 2.18303C4.58645 2.86703 3.63545 3.84503 2.73845 4.86803C2.12507 5.56481 1.61946 6.34951 1.23845 7.19603C0.806452 8.16503 0.371453 9.16703 0.362453 10.268C0.362453 10.6281 0.164453 10.9251 0.161453 11.2941C0.100689 12.5845 0.254787 13.8761 0.617452 15.1161C0.763279 15.6262 0.939596 16.1271 1.14545 16.6161C2.36966 19.1963 4.44648 21.2752 7.02545 22.5021C8.18305 23.0388 9.43013 23.3561 10.7035 23.4381C12.3689 23.566 14.0436 23.3766 15.6385 22.8801C17.2706 22.3891 18.7407 21.4685 19.895 20.2145C21.0493 18.9605 21.8452 17.4192 22.1995 15.7521C22.4155 14.9241 22.4035 14.0631 22.6345 13.2381C22.6873 13.0896 22.6873 12.9275 22.6345 12.7791C22.4155 12.3921 22.4845 11.9811 22.4875 11.5791C22.4875 11.2791 22.3525 11.1831 22.0704 11.1921C21.6744 11.1921 21.2785 11.1921 20.8705 11.1921C18.0745 11.1921 15.2815 11.1921 12.4705 11.1921C12.0715 11.1921 11.9605 11.3091 11.9785 11.6961C12.0085 12.3471 11.9995 13.0011 11.9785 13.6521C11.9785 13.9341 12.0715 14.0181 12.3475 14.0151C13.2985 14.0151 14.2495 14.0151 15.2005 14.0151C16.4905 14.0151 17.7805 14.0151 19.0735 14.0151C19.4095 14.0151 19.6525 14.2791 19.5325 14.5431C19.398 14.9511 19.2927 15.3681 19.2175 15.7911C19.0581 16.3915 18.7885 16.9571 18.4225 17.4591C17.7964 18.2756 17.0218 18.9667 16.1395 19.4961C14.3077 20.5943 12.1219 20.9405 10.0405 20.4621C9.03704 20.265 8.07694 19.8901 7.20545 19.3551C6.96845 19.2021 6.61745 19.0641 6.56645 18.6801Z" fill="#0686F4"/>
<path d="M6.56649 18.6802C6.62349 19.0642 6.97449 19.1872 7.22949 19.3432C8.10097 19.8782 9.06107 20.2531 10.0645 20.4502C12.1469 20.9294 14.3339 20.5832 16.1665 19.4842C17.0489 18.9549 17.8234 18.2638 18.4495 17.4472C18.8156 16.9453 19.0851 16.3797 19.2445 15.7792C19.3197 15.3563 19.425 14.9392 19.5595 14.5312C19.6795 14.2672 19.4365 14.0032 19.1005 14.0032C17.8075 14.0032 16.5175 14.0032 15.2275 14.0032C14.2765 14.0032 13.3255 14.0032 12.3745 14.0032C12.0985 14.0032 11.9995 13.9222 12.0055 13.6402C12.0235 12.9892 12.0325 12.3352 12.0055 11.6842C11.9875 11.2972 12.0985 11.1772 12.4975 11.1802C15.2935 11.1982 18.0865 11.1802 20.8975 11.1802C21.2965 11.1802 21.6925 11.1802 22.0975 11.1802C22.3795 11.1802 22.5145 11.2612 22.5145 11.5672C22.5145 11.9722 22.4425 12.3832 22.6615 12.7672C22.7144 12.9156 22.7144 13.0778 22.6615 13.2262C22.4305 14.0512 22.4425 14.9122 22.2265 15.7402C21.8717 17.4068 21.0756 18.9474 19.9214 20.2009C18.7671 21.4543 17.2972 22.3745 15.6655 22.8652C14.0706 23.3618 12.396 23.5511 10.7305 23.4232C9.44896 23.3493 8.19246 23.037 7.02549 22.5022C4.44675 21.2803 2.36801 19.2068 1.13949 16.6312C0.93363 16.1422 0.757312 15.6413 0.611486 15.1312C0.24882 13.8913 0.0947201 12.5997 0.155484 11.3092C0.155484 10.9402 0.353486 10.6432 0.356486 10.2832C0.356486 9.18217 0.800485 8.18317 1.23249 7.21117C1.6135 6.36465 2.1191 5.57995 2.73249 4.88317C3.63249 3.86017 4.57748 2.88217 5.78048 2.19817C6.4921 1.74459 7.25816 1.38272 8.06048 1.12117C8.99279 0.8666 9.94532 0.692956 10.9075 0.602166C12.0178 0.524705 13.1334 0.594307 14.2255 0.809166C15.5597 1.06929 16.8303 1.58694 17.9665 2.33317C18.4696 2.62196 18.93 2.97939 19.3345 3.39517C19.4995 3.57517 19.4965 3.68017 19.3345 3.84517C18.8335 4.32817 18.3445 4.82017 17.8555 5.31817C17.8235 5.36459 17.7811 5.40299 17.7318 5.43036C17.6825 5.45773 17.6275 5.47333 17.5712 5.47594C17.5148 5.47856 17.4587 5.46811 17.407 5.44543C17.3554 5.42274 17.3097 5.38843 17.2735 5.34517C16.3157 4.53617 15.1877 3.95371 13.9735 3.64117C12.8735 3.33317 11.719 3.27171 10.5925 3.46117C9.34998 3.6786 8.16424 4.14494 7.10649 4.83217C5.76001 5.72675 4.7022 6.993 4.06149 8.47717C3.6909 9.28399 3.45672 10.1467 3.36848 11.0302C3.31742 11.7783 3.31742 12.5291 3.36848 13.2772C3.38648 13.8022 3.63548 14.3212 3.77648 14.8432C4.10176 15.9236 4.65754 16.9205 5.40548 17.7652C5.70548 18.1162 5.92748 18.6892 6.55148 18.6652L6.56649 18.6802Z" fill="#0285F7"/>
</g>
<defs>
<clipPath id="clip0_556_24741">
<rect width="92" height="30" fill="white" transform="translate(0 0.362061)"/>
</clipPath>
</defs>
</svg>
