<svg width="143" height="31" viewBox="0 0 143 31" fill="none" xmlns="http://www.w3.org/2000/svg">
<g clip-path="url(#clip0_556_24735)">
<path d="M140.25 20.851C139.814 20.851 139.46 21.2053 139.46 21.6415C139.46 22.0777 139.813 22.432 140.25 22.432C140.686 22.432 141.04 22.0777 141.04 21.6415C141.04 21.2053 140.686 20.851 140.25 20.851ZM140.25 22.3067C139.883 22.3067 139.584 22.0074 139.584 21.6415C139.584 21.2738 139.883 20.9763 140.25 20.9763C140.618 20.9763 140.917 21.2755 140.917 21.6415C140.917 22.0075 140.618 22.3067 140.25 22.3067ZM140.507 21.5061C140.507 21.3624 140.406 21.2772 140.255 21.2772H140.003V21.9975H140.126V21.7368H140.261L140.392 21.9975H140.526L140.382 21.71C140.459 21.675 140.507 21.6047 140.507 21.5061ZM140.25 21.6248H140.128V21.3858H140.25C140.333 21.3858 140.383 21.4276 140.383 21.5045C140.383 21.583 140.332 21.6248 140.25 21.6248ZM45.0041 12.851V10.9392H42.0729V22.3133H45.0041V15.4933C45.0041 14.2582 45.7962 13.6516 47.0312 13.6516H48.6356V10.9393H47.2652C46.1923 10.9392 45.2598 11.4991 45.0041 12.851ZM51.3813 6.44043C50.3786 6.44043 49.6099 7.23258 49.6099 8.23528C49.6099 9.2146 50.3786 10.0068 51.3813 10.0068C52.3841 10.0068 53.1528 9.2146 53.1528 8.23528C53.1528 7.23254 52.3841 6.44043 51.3813 6.44043ZM49.9191 22.3133H52.8436V10.9392H49.9191V22.3133ZM66.7746 16.6263C66.7746 19.8734 64.1425 22.5055 60.8953 22.5055C59.5851 22.5055 58.3969 22.076 57.4443 21.3507V25.6524H54.5198V10.9392H57.4443V11.9018C58.3969 11.1766 59.5851 10.747 60.8953 10.747C64.1425 10.747 66.7746 13.3791 66.7746 16.6263ZM63.8317 16.6263C63.8317 14.8632 62.4012 13.4327 60.638 13.4327C58.8749 13.4327 57.4444 14.8632 57.4444 16.6263C57.4444 18.3894 58.8749 19.8199 60.638 19.8199C62.4012 19.8199 63.8317 18.3911 63.8317 16.6263ZM117.606 15.6286L115.899 15.1607C114.776 14.8682 114.339 14.5239 114.339 13.9307C114.339 13.3524 114.954 12.948 115.834 12.948C116.671 12.948 117.328 13.4961 117.328 14.198V14.2632H120.023V14.198C120.023 12.1341 118.341 10.747 115.834 10.747C113.352 10.747 111.549 12.1324 111.549 14.0426C111.549 15.5283 112.533 16.6479 114.251 17.1125L115.885 17.5588C117.128 17.903 117.589 18.284 117.589 18.9676C117.589 19.6878 116.922 20.1725 115.929 20.1725C114.894 20.1725 114.198 19.5173 114.198 18.5448V18.4796H111.337V18.5448C111.337 20.8777 113.215 22.5088 115.906 22.5088C118.498 22.5088 120.38 20.9162 120.38 18.7235C120.38 17.6473 119.898 16.2403 117.606 15.6286ZM77.1493 10.9392H80.0739V22.3133H77.1493V21.3507C76.1967 22.076 75.0085 22.5055 73.6983 22.5055C70.4513 22.5055 67.8191 19.8734 67.8191 16.6263C67.8191 13.379 70.4513 10.747 73.6983 10.747C75.0085 10.747 76.1967 11.1765 77.1493 11.9018V10.9392ZM77.1493 16.6263C77.1493 14.8615 75.7188 13.4327 73.9557 13.4327C72.1925 13.4327 70.7621 14.8632 70.7621 16.6263C70.7621 18.3894 72.1925 19.8199 73.9557 19.8199C75.7204 19.8199 77.1493 18.3911 77.1493 16.6263ZM90.6341 6.89164H93.5587V22.315H90.6341V21.3524C89.6815 22.0776 88.4933 22.5072 87.1831 22.5072C83.936 22.5072 81.3039 19.8751 81.3039 16.6279C81.3039 13.3807 83.9359 10.7487 87.1831 10.7487C88.4933 10.7487 89.6815 11.1782 90.6341 11.9034V6.89164ZM90.6341 16.6263C90.6341 14.8632 89.2035 13.4327 87.4404 13.4327C85.6774 13.4327 84.2468 14.8632 84.2468 16.6263C84.2468 18.3894 85.6756 19.8199 87.4404 19.8199C89.2035 19.8199 90.6341 18.3911 90.6341 16.6263ZM107.137 22.3133H110.062V10.9392H107.137V22.3133ZM108.599 6.44043C107.597 6.44043 106.828 7.23258 106.828 8.23528C106.828 9.2146 107.597 10.0068 108.599 10.0068C109.602 10.0068 110.371 9.2146 110.371 8.23528C110.371 7.23254 109.602 6.44043 108.599 6.44043ZM133.02 16.6263C133.02 19.8734 130.388 22.5055 127.141 22.5055C123.894 22.5055 121.262 19.8734 121.262 16.6263C121.262 13.3791 123.893 10.747 127.141 10.747C130.388 10.747 133.02 13.3791 133.02 16.6263ZM130.335 16.6263C130.335 14.8632 128.904 13.4327 127.141 13.4327C125.378 13.4327 123.948 14.8632 123.948 16.6263C123.948 18.3894 125.377 19.8199 127.141 19.8199C128.904 19.8199 130.335 18.3911 130.335 16.6263ZM43.5067 6.89164H32.2881V9.50036H36.4409V22.3133H39.3555V9.50036H43.5084V6.89164H43.5067ZM100.241 19.1982L97.6397 10.9393H94.5685L98.4703 22.3133H101.99L105.915 10.9393H102.844L100.241 19.1982ZM137.305 12.851V10.9392H134.374V22.3133H137.305V15.4933C137.305 14.2582 138.098 13.6516 139.332 13.6516H140.936V10.9393H139.567C138.493 10.9392 137.562 11.4991 137.305 12.851Z" fill="black"/>
<path d="M15.3721 30.7762C23.6327 30.7762 30.3292 24.0797 30.3292 15.8191C30.3292 7.55857 23.6327 0.862061 15.3721 0.862061C7.11155 0.862061 0.415039 7.55857 0.415039 15.8191C0.415039 24.0797 7.11155 30.7762 15.3721 30.7762Z" fill="#34E0A1"/>
<path d="M24.6102 12.9012L26.4151 10.9376H22.4125C20.4088 9.56888 17.9889 8.77173 15.3719 8.77173C12.7582 8.77173 10.3449 9.57059 8.34454 10.9376H4.33203L6.13692 12.9012C5.03061 13.9106 4.33707 15.3646 4.33707 16.979C4.33707 20.0255 6.80711 22.4955 9.85368 22.4955C11.3009 22.4955 12.6195 21.9373 13.6038 21.0248L15.3719 22.9501L17.14 21.0265C18.1244 21.939 19.4412 22.4955 20.8884 22.4955C23.935 22.4955 26.4083 20.0255 26.4083 16.979C26.41 15.3629 25.7166 13.909 24.6102 12.9012ZM9.85528 20.7124C7.79304 20.7124 6.12191 19.0412 6.12191 16.979C6.12191 14.9167 7.79308 13.2455 9.85528 13.2455C11.9175 13.2455 13.5887 14.9167 13.5887 16.979C13.5887 19.0412 11.9175 20.7124 9.85528 20.7124ZM15.3736 16.8703C15.3736 14.4137 13.5871 12.3046 11.229 11.4038C12.5041 10.8707 13.9029 10.5749 15.3719 10.5749C16.8409 10.5749 18.2412 10.8707 19.5164 11.4038C17.1601 12.3063 15.3736 14.4137 15.3736 16.8703ZM20.8901 20.7124C18.8279 20.7124 17.1567 19.0412 17.1567 16.979C17.1567 14.9167 18.8279 13.2455 20.8901 13.2455C22.9524 13.2455 24.6235 14.9167 24.6235 16.979C24.6235 19.0412 22.9523 20.7124 20.8901 20.7124ZM20.8901 15.0203C19.8089 15.0203 18.9332 15.896 18.9332 16.9773C18.9332 18.0585 19.8089 18.9342 20.8901 18.9342C21.9713 18.9342 22.8471 18.0585 22.8471 16.9773C22.8471 15.8977 21.9713 15.0203 20.8901 15.0203ZM11.8122 16.979C11.8122 18.0602 10.9365 18.9359 9.85528 18.9359C8.77408 18.9359 7.89836 18.0602 7.89836 16.979C7.89836 15.8977 8.77408 15.0219 9.85528 15.0219C10.9365 15.0203 11.8122 15.8977 11.8122 16.979Z" fill="black"/>
</g>
<defs>
<clipPath id="clip0_556_24735">
<rect width="142.5" height="30" fill="white" transform="translate(0.415039 0.862061)"/>
</clipPath>
</defs>
</svg>
