<svg width="42" height="42" viewBox="0 0 42 42" fill="none" xmlns="http://www.w3.org/2000/svg">
<path d="M40.6 35.129V31.5C40.5993 30.9027 40.5405 30.3111 40.4235 29.7254C40.3065 29.1396 40.1335 28.5709 39.9046 28.0191C39.6757 27.4674 39.3953 26.9433 39.0633 26.4467C38.7313 25.9501 38.3541 25.4907 37.9317 25.0683C37.5093 24.6459 37.0499 24.2687 36.5533 23.9367C36.0567 23.6047 35.5326 23.3243 34.9809 23.0954C34.4291 22.8665 33.8604 22.6935 33.2746 22.5765C32.6889 22.4595 32.0973 22.4007 31.5 22.4H29.4C28.8027 22.3993 28.2111 22.3405 27.6254 22.2235C27.0396 22.1065 26.4709 21.9335 25.9191 21.7046C25.3674 21.4757 24.8433 21.1953 24.3467 20.8633C23.8501 20.5313 23.3906 20.1541 22.9683 19.7317C22.5459 19.3093 22.1687 18.8499 21.8367 18.3533C21.5047 17.8567 21.2243 17.3326 20.9954 16.7809C20.7665 16.2291 20.5935 15.6604 20.4765 15.0746C20.3595 14.4889 20.3007 13.8973 20.3 13.3V8.4C20.5784 8.3997 20.8461 8.34621 21.1033 8.23953C21.3604 8.13286 21.5874 7.9811 21.7843 7.78425C21.9811 7.58741 22.1329 7.36042 22.2395 7.10328C22.3462 6.84614 22.3997 6.57838 22.4 6.3V2.1C22.3997 1.82162 22.3462 1.55386 22.2395 1.29672C22.1329 1.03959 21.9811 0.812594 21.7843 0.615747C21.5874 0.418899 21.3604 0.267139 21.1033 0.160465C20.8461 0.0537922 20.5784 0.00030373 20.3 0H2.1C1.82162 0.00030394 1.55386 0.0537926 1.29672 0.160466C1.03959 0.267139 0.812595 0.4189 0.615747 0.615747C0.4189 0.812594 0.267139 1.03959 0.160466 1.29672C0.0537926 1.55386 0.00030394 1.82162 0 2.1V6.3C0.00136605 6.7435 0.130463 7.14604 0.38729 7.50761C0.644118 7.86918 0.981688 8.12363 1.4 8.27097V11.9C1.4 12.0933 1.46834 12.2583 1.60503 12.395C1.74171 12.5317 1.9067 12.6 2.1 12.6C2.2933 12.6 2.45829 12.5317 2.59497 12.395C2.73166 12.2583 2.8 12.0933 2.8 11.9V8.4H13.3V13.3C13.2959 14.301 13.3849 15.2936 13.5668 16.278C13.7488 17.2623 14.0205 18.2211 14.3822 19.1545C14.7438 20.0879 15.1889 20.9796 15.7176 21.8296C16.2464 22.6796 16.8494 23.473 17.5268 24.21C18.2042 24.947 18.9441 25.6146 19.7466 26.2129C20.5491 26.8113 21.4002 27.3298 22.2999 27.7687C23.1996 28.2075 24.1322 28.5589 25.0977 28.823C26.0633 29.0871 27.0449 29.2592 28.0427 29.3393C28.0156 29.5922 28.0014 29.8457 28 30.1V35H11.2V32.9C11.1991 32.3324 11.1457 31.7698 11.0396 31.2122C10.9335 30.6546 10.7767 30.1116 10.5691 29.5834C10.3615 29.0551 10.1067 28.5506 9.80477 28.07C9.50283 27.5894 9.15896 27.1409 8.77315 26.7246C8.38735 26.3082 7.9663 25.9313 7.51 25.5937C7.0537 25.2561 6.57007 24.9637 6.05909 24.7166C5.54812 24.4694 5.01867 24.2718 4.47074 24.1237C3.92281 23.9755 3.3659 23.8795 2.8 23.8355V14.7C2.8 14.5067 2.73166 14.3417 2.59497 14.205C2.45829 14.0683 2.2933 14 2.1 14C1.9067 14 1.74171 14.0683 1.60503 14.205C1.46834 14.3417 1.4 14.5067 1.4 14.7V35.129C0.981684 35.2763 0.644113 35.5308 0.387286 35.8924C0.130459 36.254 0.00136367 36.6565 0 37.1V39.9C0.00030422 40.1784 0.0537933 40.4461 0.160467 40.7033C0.26714 40.9604 0.418901 41.1874 0.615748 41.3843C0.812596 41.5811 1.03959 41.7329 1.29672 41.8395C1.55386 41.9462 1.82162 41.9997 2.1 42H13.3C13.4933 42 13.6583 41.9317 13.795 41.795C13.9317 41.6583 14 41.4933 14 41.3V39.2H17.2546L20.5628 41.8465C20.6906 41.9489 20.8363 42.0001 21 42H39.9C40.1784 41.9997 40.4461 41.9462 40.7033 41.8395C40.9604 41.7329 41.1874 41.5811 41.3843 41.3843C41.5811 41.1874 41.7329 40.9604 41.8395 40.7033C41.9462 40.4461 41.9997 40.1784 42 39.9V37.1C41.9986 36.6565 41.8695 36.254 41.6127 35.8924C41.3559 35.5308 41.0183 35.2763 40.6 35.129ZM1.4 2.1C1.40025 1.9068 1.46868 1.7419 1.60529 1.60529C1.7419 1.46868 1.9068 1.40025 2.1 1.4H20.3C20.4932 1.40025 20.6581 1.46868 20.7947 1.60529C20.9313 1.7419 20.9997 1.9068 21 2.1V6.3C20.9997 6.4932 20.9313 6.6581 20.7947 6.79471C20.6581 6.93132 20.4932 6.99975 20.3 7H2.1C1.9068 6.99975 1.7419 6.93132 1.60529 6.79471C1.46868 6.6581 1.40025 6.4932 1.4 6.3V2.1ZM14.7 13.3V8.4H18.9V12.6H16.8C16.6067 12.6 16.4417 12.6683 16.305 12.805C16.1683 12.9417 16.1 13.1067 16.1 13.3C16.1 13.4933 16.1683 13.6583 16.305 13.795C16.4417 13.9317 16.6067 14 16.8 14H18.9355C18.9944 14.9094 19.1695 15.7957 19.461 16.6591L17.4911 17.4751C17.3125 17.549 17.1863 17.6753 17.1123 17.8539C17.0384 18.0325 17.0384 18.2111 17.1124 18.3897C17.1864 18.5683 17.3127 18.6945 17.4913 18.7685C17.6699 18.8424 17.8485 18.8424 18.0271 18.7684L20.0005 17.951C20.4054 18.7668 20.9077 19.5173 21.5076 20.2026L19.9955 21.7147C19.8576 21.8512 19.7884 22.0164 19.7879 22.2104C19.7874 22.4044 19.8557 22.57 19.9929 22.7071C20.13 22.8443 20.2956 22.9126 20.4896 22.9121C20.6836 22.9116 20.8488 22.8424 20.9853 22.7045L22.4974 21.1925C23.1827 21.7923 23.9332 22.2947 24.749 22.6996L23.9316 24.6729C23.8573 24.8516 23.8571 25.0303 23.931 25.2091C24.0049 25.388 24.1312 25.5144 24.3099 25.5885C24.4887 25.6625 24.6674 25.6625 24.8461 25.5884C25.0249 25.5142 25.1511 25.3877 25.225 25.2089L26.0409 23.239C27.1297 23.6112 28.2494 23.7982 29.4 23.8H31.2859C29.8208 24.8386 28.8324 26.2187 28.3207 27.9402C27.4027 27.8773 26.4987 27.729 25.6086 27.4954C24.7186 27.2617 23.8583 26.9469 23.0277 26.5508C22.1971 26.1548 21.4109 25.6845 20.6691 25.14C19.9273 24.5955 19.243 23.9864 18.6163 23.3127C17.9895 22.639 17.4312 21.9126 16.9416 21.1335C16.452 20.3544 16.0396 19.5364 15.7044 18.6794C15.3692 17.8224 15.1172 16.9417 14.9483 16.0371C14.7794 15.1325 14.6966 14.2202 14.7 13.3ZM9.8 32.9V35H2.8V25.2355C3.75587 25.3236 4.6636 25.5813 5.52318 26.0086C6.38275 26.4359 7.13622 27.004 7.78357 27.7128C8.43091 28.4216 8.92849 29.2234 9.27629 30.1181C9.62409 31.0128 9.79866 31.9401 9.8 32.9ZM40.6 39.9C40.5998 40.0932 40.5313 40.2581 40.3947 40.3947C40.2581 40.5313 40.0932 40.5998 39.9 40.6H37.8V38.5C37.8 38.3067 37.7317 38.1417 37.595 38.005C37.4583 37.8683 37.2933 37.8 37.1 37.8C36.9067 37.8 36.7417 37.8683 36.605 38.005C36.4683 38.1417 36.4 38.3067 36.4 38.5V40.6H33.6V38.5C33.6 38.3067 33.5317 38.1417 33.395 38.005C33.2583 37.8683 33.0933 37.8 32.9 37.8C32.7067 37.8 32.5417 37.8683 32.405 38.005C32.2683 38.1417 32.2 38.3067 32.2 38.5V40.6H29.4V38.5C29.4 38.3067 29.3317 38.1417 29.195 38.005C29.0583 37.8683 28.8933 37.8 28.7 37.8C28.5067 37.8 28.3417 37.8683 28.205 38.005C28.0683 38.1417 28 38.3067 28 38.5V40.6H25.2V38.5C25.2 38.3067 25.1317 38.1417 24.995 38.005C24.8583 37.8683 24.6933 37.8 24.5 37.8C24.3067 37.8 24.1417 37.8683 24.005 38.005C23.8683 38.1417 23.8 38.3067 23.8 38.5V40.6H21.2454L17.9372 37.9535C17.8094 37.8511 17.6637 37.7999 17.5 37.8H13.3C13.1067 37.8 12.9417 37.8683 12.805 38.005C12.6683 38.1417 12.6 38.3067 12.6 38.5V40.6H9.8V38.5C9.8 38.3067 9.73166 38.1417 9.59497 38.005C9.45829 37.8683 9.2933 37.8 9.1 37.8C8.9067 37.8 8.74171 37.8683 8.60502 38.005C8.46834 38.1417 8.4 38.3067 8.4 38.5V40.6H5.6V38.5C5.6 38.3067 5.53166 38.1417 5.39497 38.005C5.25829 37.8683 5.0933 37.8 4.9 37.8C4.7067 37.8 4.54171 37.8683 4.40503 38.005C4.26834 38.1417 4.2 38.3067 4.2 38.5V40.6H2.1C1.9068 40.5998 1.7419 40.5313 1.60529 40.3947C1.46868 40.2581 1.40025 40.0932 1.4 39.9V37.1C1.40025 36.9068 1.46868 36.7419 1.60529 36.6053C1.7419 36.4687 1.9068 36.4003 2.1 36.4H32.9C33.0933 36.4 33.2583 36.3317 33.395 36.195C33.5317 36.0583 33.6 35.8933 33.6 35.7C33.6 35.5067 33.5317 35.3417 33.395 35.205C33.2583 35.0683 33.0933 35 32.9 35H29.4V30.1C29.4035 29.4395 29.5076 28.7954 29.7125 28.1675C29.9174 27.5396 30.2132 26.958 30.5999 26.4226C30.9866 25.8872 31.4459 25.4236 31.9776 25.0318C32.5092 24.64 33.088 24.3387 33.7139 24.1279C34.5062 24.3666 35.2409 24.7236 35.9182 25.1989C36.5955 25.6742 37.1811 26.2437 37.6751 26.9075C38.169 27.5713 38.5464 28.2958 38.8071 29.081C39.0678 29.8663 39.1988 30.6726 39.2 31.5V35H35.7C35.5067 35 35.3417 35.0683 35.205 35.205C35.0683 35.3417 35 35.5067 35 35.7C35 35.8933 35.0683 36.0583 35.205 36.195C35.3417 36.3317 35.5067 36.4 35.7 36.4H39.9C40.0932 36.4002 40.2581 36.4687 40.3947 36.6053C40.5313 36.7419 40.5998 36.9068 40.6 37.1V39.9Z" fill="black"/>
</svg>
