<svg width="48" height="35" viewBox="0 0 48 35" fill="none" xmlns="http://www.w3.org/2000/svg">
<path d="M24.4954 2.59238C23.4901 2.59238 22.4944 2.69023 21.5084 2.88592C20.5225 3.08162 19.5651 3.3714 18.6363 3.75527C17.7076 4.13914 16.8252 4.60972 15.9894 5.16701C15.1535 5.7243 14.3801 6.35759 13.6693 7.06689C12.9584 7.77619 12.3237 8.54786 11.7652 9.38191C11.2067 10.216 10.7351 11.0963 10.3504 12.0231C9.96569 12.9498 9.67528 13.9051 9.47916 14.8889C9.28303 15.8728 9.18497 16.8662 9.18497 17.8693C9.18497 18.8724 9.28303 19.8659 9.47916 20.8497C9.67528 21.8335 9.96569 22.7888 10.3504 23.7156C10.7351 24.6423 11.2067 25.5227 11.7652 26.3567C12.3237 27.1908 12.9584 27.9625 13.6693 28.6717C14.3801 29.381 15.1535 30.0143 15.9894 30.5716C16.8252 31.1289 17.7076 31.5995 18.6363 31.9834C19.5651 32.3672 20.5225 32.657 21.5085 32.8527C22.4944 33.0484 23.4901 33.1463 24.4954 33.1463C25.5007 33.1463 26.4963 33.0484 27.4823 32.8527C28.4682 32.657 29.4256 32.3672 30.3544 31.9834C31.2832 31.5995 32.1655 31.1289 33.0014 30.5716C33.8372 30.0143 34.6106 29.381 35.3214 28.6718C36.0323 27.9625 36.667 27.1908 37.2255 26.3567C37.784 25.5227 38.2556 24.6423 38.6403 23.7156C39.025 22.7888 39.3154 21.8335 39.5116 20.8497C39.7077 19.8659 39.8057 18.8724 39.8057 17.8693C39.8046 16.8665 39.7056 15.8735 39.5087 14.8901C39.3118 13.9068 39.0208 12.952 38.6357 12.0258C38.2505 11.0996 37.7787 10.2196 37.2201 9.38603C36.6615 8.55241 36.027 7.78107 35.3163 7.072C34.6057 6.36292 33.8327 5.72972 32.9972 5.17236C32.1618 4.61501 31.2799 4.1442 30.3517 3.75993C29.4234 3.37565 28.4666 3.08528 27.4811 2.88881C26.4956 2.69233 25.5003 2.59352 24.4954 2.59238ZM24.4954 31.5611C23.5944 31.5611 22.7022 31.4734 21.8186 31.298C20.935 31.1226 20.077 30.8629 19.2446 30.5189C18.4123 30.1749 17.6216 29.7532 16.8725 29.2538C16.1234 28.7544 15.4303 28.1868 14.7933 27.5512C14.1562 26.9155 13.5874 26.224 13.0869 25.4765C12.5864 24.7291 12.1637 23.9401 11.8189 23.1096C11.4742 22.2791 11.2139 21.423 11.0381 20.5413C10.8623 19.6596 10.7744 18.7693 10.7744 17.8704C10.7744 16.9714 10.8623 16.0811 11.038 15.1994C11.2138 14.3177 11.474 13.4616 11.8187 12.6311C12.1635 11.8006 12.5861 11.0116 13.0866 10.2641C13.5871 9.51666 14.1559 8.82509 14.7929 8.18942C15.4299 7.55375 16.123 6.98619 16.8721 6.48673C17.6211 5.98728 18.4118 5.56553 19.2442 5.22149C20.0765 4.87745 20.9345 4.61772 21.8181 4.44232C22.7017 4.26691 23.5939 4.17918 24.4948 4.17915C25.3958 4.17912 26.288 4.26677 27.1716 4.44211C28.0552 4.61745 28.9132 4.87711 29.7456 5.22108C30.5779 5.56506 31.3687 5.98675 32.1178 6.48614C32.8669 6.98554 33.56 7.55305 34.1971 8.18867C34.8341 8.8243 35.403 9.51582 35.9035 10.2632C36.4041 11.0107 36.8268 11.7996 37.1716 12.6301C37.5164 13.4606 37.7767 14.3167 37.9525 15.1984C38.1283 16.0801 38.2162 16.9704 38.2163 17.8693C38.2153 18.768 38.1265 19.658 37.95 20.5392C37.7736 21.4204 37.5128 22.2761 37.1676 23.1062C36.8225 23.9362 36.3996 24.7248 35.899 25.4719C35.3984 26.2189 34.8297 26.9102 34.1929 27.5457C33.556 28.1811 32.8633 28.7486 32.1146 29.2481C31.3658 29.7476 30.5756 30.1695 29.7437 30.5139C28.9118 30.8583 28.0543 31.1185 27.1711 31.2946C26.2879 31.4707 25.396 31.56 24.4954 31.5611ZM18.0724 10.3248C17.92 10.1082 17.884 9.8737 17.9643 9.62144C18.0516 9.39804 18.1999 9.22755 18.4094 9.10996C18.5895 8.98482 18.7877 8.94156 19.0037 8.98019C19.2198 9.01882 19.3906 9.12803 19.516 9.30781C19.6414 9.48759 19.6848 9.68529 19.6461 9.90091C19.6073 10.1165 19.4979 10.2869 19.3177 10.4121C19.146 10.5604 18.9468 10.6418 18.7201 10.6563C18.4471 10.6568 18.2312 10.5463 18.0724 10.3248ZM35.1765 17.8685C35.1764 18.2958 35.1507 18.7216 35.0993 19.1458C35.0479 19.57 34.9713 19.9896 34.8693 20.4046C34.7674 20.8197 34.6408 21.2271 34.4898 21.6269C34.3387 22.0267 34.1642 22.4161 33.9662 22.795C33.7682 23.1739 33.5481 23.5395 33.306 23.892C33.064 24.2445 32.8016 24.5812 32.5189 24.9022C32.2362 25.2232 31.9353 25.5261 31.6161 25.811C31.2969 26.0958 30.9618 26.3606 30.6107 26.6052C30.2596 26.8499 29.895 27.0727 29.5171 27.2736C29.1391 27.4745 28.7505 27.652 28.3511 27.8063C27.9518 27.9605 27.5446 28.0903 27.1296 28.1957C26.7146 28.3011 26.2947 28.3813 25.87 28.4363C25.4454 28.4913 25.0189 28.5207 24.5907 28.5245C24.1625 28.5283 23.7356 28.5065 23.31 28.4591C22.8844 28.4117 22.4632 28.339 22.0464 28.241C21.6295 28.143 21.2201 28.0205 20.818 27.8734C20.416 27.7263 20.0242 27.5556 19.6427 27.3615C19.2612 27.1674 18.8928 26.9511 18.5373 26.7128C18.1819 26.4744 17.8421 26.2157 17.5179 25.9365C17.1936 25.6574 16.8873 25.3599 16.5989 25.044C16.3106 24.7281 16.0422 24.3961 15.7939 24.048C15.5455 23.6999 15.319 23.3382 15.1142 22.9629C14.9095 22.5876 14.728 22.2014 14.5698 21.8043C14.4116 21.4073 14.2778 21.0022 14.1684 20.589C14.0591 20.1759 13.9749 19.7577 13.916 19.3345C13.857 18.9112 13.8237 18.486 13.816 18.0588C13.8083 17.6315 13.8263 17.2054 13.8699 16.7803C13.9136 16.3553 13.9826 15.9343 14.077 15.5175C14.1715 15.1007 14.2906 14.6911 14.4343 14.2886C14.5781 13.8861 14.7456 13.4937 14.9367 13.1113C15.1278 12.7289 15.3411 12.3593 15.5768 12.0025C15.8124 11.6457 16.0686 11.3043 16.3454 10.9782C16.4874 10.8113 16.6678 10.7188 16.8865 10.701C17.1052 10.6831 17.2983 10.745 17.4656 10.8867C17.633 11.0283 17.7256 11.2083 17.7435 11.4265C17.7614 11.6448 17.6994 11.8374 17.5574 12.0044C17.3225 12.2818 17.1051 12.5723 16.9052 12.8758C16.7053 13.1793 16.5244 13.4937 16.3625 13.819C16.2006 14.1443 16.0588 14.4781 15.9371 14.8204C15.8155 15.1627 15.7149 15.5111 15.6353 15.8655C15.5557 16.2199 15.4978 16.5778 15.4614 16.9392C15.425 17.3006 15.4105 17.6628 15.4178 18.0259C15.4252 18.3891 15.4543 18.7504 15.5053 19.11C15.5562 19.4697 15.6286 19.8249 15.7225 20.1758C15.8163 20.5268 15.931 20.8708 16.0663 21.2079C16.2017 21.5451 16.3569 21.8729 16.5318 22.1914C16.7068 22.5099 16.9002 22.8168 17.1122 23.112C17.3242 23.4072 17.5532 23.6887 17.7991 23.9565C18.0451 24.2242 18.3063 24.4762 18.5827 24.7126C18.8591 24.9489 19.1487 25.1678 19.4515 25.3694C19.7543 25.5709 20.0681 25.7536 20.393 25.9174C20.7179 26.0812 21.0514 26.225 21.3936 26.3487C21.7358 26.4724 22.0843 26.5752 22.4389 26.6571C22.7935 26.7389 23.1518 26.7993 23.5137 26.8381C23.8756 26.8769 24.2385 26.8939 24.6025 26.889C24.9664 26.8842 25.3288 26.8576 25.6896 26.8093C26.0503 26.7609 26.4068 26.6911 26.7592 26.5999C27.1115 26.5087 27.4571 26.3967 27.7959 26.2639C28.1347 26.1312 28.4643 25.9786 28.7847 25.8063C29.1051 25.6339 29.4139 25.443 29.7113 25.2335C30.0086 25.024 30.2923 24.7975 30.5623 24.5539C30.8323 24.3104 31.0867 24.0515 31.3255 23.7774C31.5642 23.5032 31.7856 23.2158 31.9897 22.915C32.1937 22.6143 32.379 22.3024 32.5454 21.9794C32.7118 21.6564 32.8582 21.3245 32.9846 20.9839C33.1109 20.6433 33.2164 20.2964 33.3008 19.9431C33.3853 19.5898 33.4482 19.2328 33.4896 18.8719C33.531 18.5111 33.5506 18.1491 33.5482 17.7859C33.5459 17.4227 33.5218 17.061 33.4758 16.7007C33.4298 16.3404 33.3623 15.9842 33.2734 15.632C33.1844 15.2798 33.0746 14.9342 32.9439 14.5952C32.8132 14.2563 32.6626 13.9263 32.492 13.6055C32.3215 13.2846 32.1323 12.9751 31.9244 12.6769C31.7166 12.3788 31.4915 12.0942 31.2493 11.8231C31.007 11.552 30.7494 11.2964 30.4763 11.0563C30.2032 10.8161 29.9167 10.5932 29.6167 10.3875C29.3167 10.1819 29.0054 9.99487 28.6828 9.82659C28.3603 9.65831 28.0288 9.50995 27.6883 9.38152C27.3478 9.25308 27.0008 9.14549 26.6474 9.05875C26.2939 8.97201 25.9365 8.90675 25.5752 8.86297C25.2139 8.81918 24.8512 8.79719 24.4872 8.79699C24.1232 8.79679 23.7605 8.81838 23.3991 8.86177C23.0377 8.90516 22.6803 8.97003 22.3267 9.05638C21.9732 9.14273 21.6261 9.24993 21.2855 9.37799C21.0791 9.45927 20.8746 9.45509 20.6718 9.36545C20.469 9.27581 20.3284 9.12745 20.2501 8.92036C20.1718 8.71328 20.1791 8.50925 20.272 8.30826C20.3649 8.10728 20.5157 7.96929 20.7244 7.89431C21.1271 7.74307 21.5375 7.61656 21.9555 7.51478C22.3736 7.413 22.7962 7.33669 23.2235 7.28585C23.6508 7.235 24.0795 7.21 24.5098 7.21084C24.9401 7.21168 25.3688 7.23835 25.7959 7.29085C26.223 7.34335 26.6453 7.42131 27.063 7.52471C27.4806 7.62812 27.8905 7.75623 28.2926 7.90904C28.6947 8.06184 29.0862 8.23824 29.467 8.43822C29.8477 8.63821 30.2151 8.86033 30.5689 9.10459C30.9228 9.34884 31.2607 9.61346 31.5826 9.89844C31.9044 10.1834 32.2079 10.4867 32.4931 10.8082C32.7782 11.1298 33.0429 11.4673 33.2872 11.8208C33.5315 12.1742 33.7536 12.5411 33.9535 12.9213C34.1533 13.3015 34.3296 13.6924 34.4821 14.0938C34.6347 14.4953 34.7625 14.9045 34.8655 15.3213C34.9686 15.7382 35.0461 16.1597 35.0981 16.586C35.1501 17.0122 35.1762 17.4392 35.1765 17.8685ZM46.4616 20.142V1.6067C46.4614 1.40591 46.4227 1.21279 46.3456 1.02733C46.2685 0.841865 46.1588 0.678145 46.0165 0.536169C45.8742 0.394192 45.7102 0.284737 45.5243 0.207803C45.3384 0.130868 45.1449 0.0922962 44.9437 0.0920859C44.3411 0.0886457 43.8187 0.291122 43.3765 0.699516C42.5799 1.44226 41.9476 2.30489 41.4796 3.28742C41.0116 4.26995 40.7406 5.30388 40.6664 6.38921C40.4227 11.107 40.9022 15.7505 42.1049 20.3197C42.0969 20.3696 41.3523 32.1106 41.3523 32.1106C41.3322 32.4279 41.3761 32.7362 41.4841 33.0353C41.5922 33.3344 41.7553 33.5998 41.9737 33.8314C42.192 34.063 42.4475 34.2417 42.7401 34.3676C43.0327 34.4934 43.3383 34.556 43.657 34.5554H44.95C45.2687 34.556 45.5743 34.4934 45.8669 34.3676C46.1595 34.2417 46.415 34.063 46.6333 33.8314C46.8517 33.5998 47.0148 33.3344 47.1229 33.0353C47.2309 32.7362 47.2748 32.4279 47.2547 32.1106C47.2547 32.1106 46.4934 20.2475 46.4632 20.1428L46.4616 20.142ZM42.2495 6.50261C42.373 4.66526 43.1087 3.11761 44.4565 1.85966C44.5736 1.75314 44.711 1.69341 44.8689 1.68044V19.02H43.6308C43.562 19.0219 43.4936 19.0285 43.4257 19.0398C42.4206 14.9179 42.0304 10.7388 42.2551 6.50261H42.2495ZM45.4666 32.7434C45.3255 32.8947 45.1515 32.9697 44.9444 32.9686H43.6554C43.4485 32.9691 43.2743 32.8941 43.1326 32.7436C42.991 32.5932 42.9268 32.4149 42.9401 32.209L43.63 20.6051L44.9357 20.5687L45.6645 32.209C45.6782 32.4152 45.6138 32.5934 45.4714 32.7434H45.4666ZM9.66181 0.755025C9.65098 0.535933 9.56408 0.352773 9.40112 0.205546C9.23815 0.0583192 9.04688 -0.00981702 8.82732 0.00113805C8.60775 0.0120924 8.42425 0.0989261 8.27682 0.261639C8.12938 0.424352 8.06123 0.615247 8.07236 0.834325L8.45621 8.74122C8.50309 9.74433 8.14096 10.5685 7.36982 11.2138C6.68265 11.7898 6.16439 12.4903 5.81507 13.3152C5.46574 14.1402 5.32357 14.9992 5.38857 15.8924L5.6103 18.8637H4.29582L4.5247 15.7671C4.58892 14.895 4.45489 14.0544 4.12261 13.2453C3.79033 12.4361 3.29467 11.7434 2.63564 11.167C1.89503 10.5237 1.548 9.71274 1.59455 8.73408L1.9784 0.834324C1.98937 0.615345 1.92115 0.424565 1.77373 0.261982C1.62631 0.0993996 1.44287 0.0126339 1.22341 0.00168483C1.00395 -0.00926422 0.812755 0.0588107 0.649816 0.205909C0.486877 0.353008 0.399921 0.536046 0.388949 0.755025L0.00589068 8.65399C-0.0290219 9.35746 0.0912538 10.0334 0.366718 10.6819C0.642182 11.3304 1.04537 11.8867 1.57627 12.3509C2.04905 12.763 2.40522 13.2586 2.64476 13.8376C2.88431 14.4166 2.98219 15.0185 2.93843 15.6434C2.93843 15.6434 2.60703 20.2745 2.60385 20.3181L1.80912 32.1788C1.76496 32.836 1.97026 33.4032 2.42504 33.8806C2.92028 34.4008 3.52745 34.6596 4.24655 34.6569H5.65957C6.37875 34.6598 6.98592 34.401 7.48108 33.8806C7.93638 33.4034 8.14195 32.8362 8.09779 32.1788L7.30306 20.3173C7.30306 20.2745 6.97484 15.7687 6.97484 15.7687C6.93017 15.1273 7.03392 14.5109 7.2861 13.9193C7.53828 13.3277 7.91136 12.8255 8.40535 12.4128C8.95677 11.9486 9.37638 11.3865 9.66418 10.7265C9.95197 10.0664 10.0781 9.37691 10.0425 8.65796L9.66181 0.755025ZM6.3176 32.7918C6.13626 32.9747 5.91665 33.067 5.65877 33.0686H4.24893C3.98905 33.0718 3.76865 32.9804 3.58772 32.7942C3.44931 32.6512 3.38573 32.4804 3.39699 32.2819L4.22112 20.4434L5.71679 20.4212L6.51152 32.2819C6.52363 32.4809 6.459 32.6509 6.3176 32.7918ZM5.47519 7.64372V0.913623C5.47519 0.694645 5.55278 0.507735 5.70796 0.352894C5.86314 0.198054 6.05046 0.120634 6.26992 0.120634C6.48938 0.120634 6.67669 0.198054 6.83187 0.352894C6.98705 0.507735 7.06464 0.694645 7.06464 0.913623V7.6461C7.06464 7.86508 6.98705 8.05199 6.83187 8.20683C6.67669 8.36167 6.48938 8.43909 6.26992 8.43909C6.05046 8.43909 5.86314 8.36167 5.70796 8.20683C5.55278 8.05199 5.47519 7.86508 5.47519 7.6461V7.64372ZM2.9885 7.64372V0.913623C2.9885 0.694645 3.06609 0.507735 3.22127 0.352894C3.37645 0.198054 3.56376 0.120634 3.78322 0.120634C4.00268 0.120634 4.19 0.198054 4.34518 0.352894C4.50036 0.507735 4.57795 0.694645 4.57795 0.913623V7.6461C4.57795 7.86508 4.50036 8.05199 4.34518 8.20683C4.19 8.36167 4.00268 8.43909 3.78322 8.43909C3.56376 8.43909 3.37645 8.36167 3.22127 8.20683C3.06609 8.05199 2.9885 7.86508 2.9885 7.6461V7.64372Z" fill="white"/>
</svg>
