<svg width="48" height="35" viewBox="0 0 48 35" fill="none" xmlns="http://www.w3.org/2000/svg">
<path d="M47.2427 1.54411C47.3033 1.13743 47.1995 0.779293 46.9312 0.469691C46.7402 0.245293 46.5018 0.100345 46.216 0.0348466C45.9302 -0.0306526 45.6531 -0.00381563 45.3848 0.115359C44.598 0.434914 43.9391 0.928311 43.408 1.59555C43.0774 1.6591 42.8112 1.82674 42.6093 2.09847L42.5131 2.23563C42.1873 2.30703 41.9286 2.48039 41.7371 2.7557C41.3628 2.78065 41.0607 2.94257 40.8308 3.24147H40.6722C40.3116 3.24349 40.0076 3.37684 39.7602 3.64153C39.6809 3.72153 39.6073 3.81297 39.5337 3.8987C39.4388 3.8753 39.3425 3.86387 39.2448 3.86441C38.8366 3.86473 38.5062 4.02665 38.2535 4.35019V4.38448C38.1149 4.33123 37.9714 4.30456 37.8231 4.30447C37.4664 4.30469 37.1662 4.43613 36.9224 4.6988C36.8668 4.7538 36.8159 4.81285 36.7695 4.87597C36.5623 4.74227 36.3357 4.67749 36.0898 4.68166C35.7238 4.68194 35.416 4.8172 35.1665 5.08742C35.0363 5.23601 34.9173 5.37889 34.804 5.52748C34.588 5.39614 34.3539 5.33137 34.1017 5.33317C33.6735 5.33221 33.3299 5.50366 33.0708 5.84752C32.9518 6.00754 32.8385 6.16756 32.7309 6.33901C32.4845 6.12699 32.1994 6.02221 31.8756 6.02469C31.4599 6.02461 31.1201 6.18654 30.856 6.51046C30.7428 6.64762 30.6351 6.79622 30.5332 6.94481C30.3978 6.79058 30.236 6.67361 30.0477 6.59389C29.8594 6.51417 29.6633 6.4796 29.4594 6.49016C29.2555 6.50073 29.0639 6.55539 28.8847 6.65415C28.7055 6.75291 28.5564 6.88599 28.4374 7.05339C28.3411 7.18484 28.2448 7.32771 28.1599 7.47059L28.0806 7.362C27.8185 7.04378 27.4824 6.88567 27.0723 6.88766C26.7043 6.89042 26.3909 7.02377 26.1321 7.28771C25.8221 7.59733 25.554 7.94024 25.3277 8.31641C25.2891 8.10487 25.2041 7.91437 25.0728 7.74491C24.9635 7.61125 24.8324 7.50481 24.6796 7.42559C24.5268 7.34638 24.3647 7.30083 24.1933 7.28894C24.022 7.27705 23.8552 7.29979 23.6931 7.35716C23.531 7.41454 23.3867 7.50187 23.2603 7.61918C22.7155 8.12166 22.2718 8.70268 21.9292 9.36226C21.9161 9.05979 21.8104 8.79499 21.612 8.56787C21.3487 8.2674 21.0183 8.1169 20.6207 8.11638C20.2227 8.1162 19.8942 8.2686 19.6352 8.57358C19.1671 9.12255 18.78 9.72453 18.474 10.3795C18.474 10.2767 18.474 10.1795 18.474 10.0766C18.4898 9.88909 18.4677 9.70622 18.4076 9.52803C18.3475 9.34983 18.2546 9.19127 18.1287 9.05235C18.0029 8.91342 17.8547 8.80579 17.6841 8.72946C17.5136 8.65313 17.3351 8.61451 17.1486 8.61359C16.7265 8.6137 16.3828 8.77944 16.1177 9.1108C15.6621 9.66488 15.2732 10.2631 14.9508 10.9053C14.9508 10.8367 14.9508 10.7739 14.9508 10.7167C14.9578 10.5312 14.9284 10.3517 14.8628 10.1782C14.7972 10.0047 14.7005 9.85116 14.5728 9.71746C14.4451 9.58377 14.2966 9.48063 14.1272 9.40806C13.9578 9.33548 13.7811 9.29926 13.5971 9.29939C13.2195 9.29803 12.8986 9.43329 12.6341 9.70516C11.958 10.3968 11.418 11.1835 11.0142 12.0655C11.0142 11.9797 10.9859 11.894 10.9745 11.814C10.9228 11.5207 10.7938 11.2675 10.5876 11.0543C10.3814 10.8411 10.1336 10.7049 9.8443 10.6456C9.55496 10.5864 9.27415 10.6143 9.00186 10.7295C8.72958 10.8446 8.51295 11.0271 8.35198 11.2768C7.46951 12.6467 6.8691 14.1326 6.55075 15.7345C6.26893 17.1618 6.16886 18.602 6.25054 20.0551C6.34616 21.7728 6.63504 23.4569 7.11717 25.1071C4.70531 27.318 2.44905 29.6802 0.348397 32.1938C0.151308 32.4242 0.0380233 32.6909 0.00854163 32.9939C-0.0201092 33.2707 0.0233167 33.5355 0.138819 33.7882C0.259768 34.0538 0.442284 34.2651 0.686366 34.4224C0.930449 34.5797 1.1973 34.6579 1.48691 34.6569H4.16044C4.62591 34.6437 5.00353 34.4532 5.29328 34.0854C5.68412 33.5939 7.64395 31.1479 10.3911 28.279C11.3881 28.7906 12.4171 29.2249 13.4781 29.582C15.715 30.3372 18.0128 30.7182 20.3715 30.725H20.9379C21.2079 30.7176 21.4561 30.6396 21.6825 30.4912C21.9089 30.3428 22.0804 30.1457 22.1968 29.8999C22.3133 29.6541 22.3576 29.3956 22.3298 29.1246C22.3021 28.8536 22.2063 28.6098 22.0425 28.3933C22.5191 28.4707 22.9987 28.5183 23.4812 28.5361H23.5265C23.8247 28.5357 24.0934 28.4456 24.3327 28.266C24.5719 28.0863 24.7346 27.8525 24.8206 27.5644C24.9067 27.2763 24.8992 26.9907 24.7982 26.7076C24.6972 26.4245 24.5225 26.1996 24.2742 26.033C24.2458 25.9923 24.2194 25.9504 24.1949 25.9072H24.0986C24.6482 26.0182 25.2033 26.0754 25.7639 26.0787H25.8375C26.1302 26.0785 26.3942 25.9905 26.6293 25.8146C26.8645 25.6388 27.0247 25.4096 27.11 25.1271C27.1953 24.8445 27.1889 24.5641 27.0909 24.2859C26.9929 24.0076 26.8224 23.786 26.5795 23.6212C26.3825 23.4853 26.1937 23.3386 26.0131 23.1812C26.7917 23.3843 27.5828 23.5024 28.3864 23.5355H28.4317C28.7225 23.5359 28.9843 23.4483 29.2172 23.2726C29.45 23.0969 29.6074 22.8683 29.6892 22.5868C29.7736 22.3239 29.7736 22.061 29.6892 21.7981C29.6221 21.5975 29.5145 21.4223 29.3663 21.2724C30.0042 21.3811 30.6461 21.4516 31.2922 21.4838H31.3545C31.6347 21.4832 31.8866 21.3977 32.1102 21.2272C32.3337 21.0567 32.484 20.8355 32.561 20.5637C32.6976 20.0627 32.5768 19.636 32.1985 19.2835C32.4731 19.3169 32.7488 19.334 33.0254 19.335H33.2577C33.5454 19.325 33.8015 19.2291 34.0259 19.0471C34.2504 18.8651 34.3983 18.6334 34.4698 18.352C34.5274 18.1291 34.5274 17.9062 34.4698 17.6833C34.7644 17.6833 35.0363 17.729 35.3478 17.729H35.4271C35.7391 17.7271 36.0164 17.6273 36.2591 17.4295C36.5017 17.2317 36.6568 16.9791 36.7242 16.6718C36.7554 16.5022 36.7554 16.3327 36.7242 16.1631C36.9394 16.1631 37.1603 16.1631 37.3756 16.1631C37.6947 16.1624 37.9742 16.0557 38.2139 15.8431C38.4251 15.6555 38.5611 15.4231 38.6217 15.1459C38.6812 14.9235 38.6831 14.7006 38.6274 14.4772C38.9446 14.4772 39.2674 14.4315 39.5903 14.3915C39.9085 14.3569 40.1756 14.2204 40.3914 13.9819C40.6073 13.7435 40.7178 13.4628 40.7232 13.1399C40.7316 13.0561 40.7316 12.9722 40.7232 12.8884C40.9101 12.8884 41.097 12.8427 41.2896 12.8084C41.5681 12.7454 41.7989 12.6035 41.982 12.3826C42.1652 12.1617 42.2629 11.9074 42.2752 11.6197C42.281 11.5416 42.281 11.4635 42.2752 11.3854H42.3601C42.683 11.3279 42.9417 11.1659 43.1361 10.8996C43.2998 10.6689 43.3791 10.4117 43.374 10.1281C43.373 10.0231 43.3579 9.92023 43.3287 9.81946L43.6119 9.67659C43.8383 9.55285 44.0113 9.37597 44.131 9.14597C44.2506 8.91596 44.2966 8.67183 44.269 8.41357C44.3369 8.38078 44.403 8.34458 44.4672 8.30498C44.9114 8.05567 45.1267 7.67466 45.1129 7.16198C45.1866 7.11626 45.2546 7.06482 45.3225 7.01339C45.7184 6.72027 45.8864 6.32783 45.8266 5.83609L45.9456 5.72751C46.2093 5.46037 46.3339 5.13843 46.3194 4.76167C46.3715 4.70912 46.4206 4.65388 46.4667 4.59593C46.7819 4.21449 46.8574 3.78967 46.6933 3.32148L46.7443 3.2129C46.9935 2.68191 47.1597 2.12565 47.2427 1.54411ZM46.0249 1.36123C45.9456 1.93273 45.6171 3.53294 44.4219 3.71582C44.3539 3.81298 44.286 3.91013 44.2123 4.00157C44.4273 3.95308 44.6444 3.9188 44.8637 3.8987C45.0709 3.87007 45.2691 3.81102 45.4585 3.72154C45.4833 3.71496 45.5033 3.72212 45.5185 3.74302C45.5337 3.76392 45.5345 3.78533 45.5208 3.80726C45.0605 4.34416 44.479 4.59562 43.7762 4.56164C43.6799 4.68166 43.5779 4.79596 43.4816 4.91026C43.7628 4.84261 44.0479 4.80641 44.3369 4.80167C44.5719 4.79903 44.8023 4.76474 45.028 4.6988C45.0544 4.68356 45.0752 4.68928 45.0903 4.71595C45.1054 4.74262 45.0997 4.76358 45.0733 4.77881C44.4697 5.32097 43.7654 5.55528 42.9605 5.48176L42.5301 5.9161C43.0002 5.79415 43.4703 5.79415 43.9404 5.9161C44.1444 5.94464 44.3483 5.94464 44.5522 5.9161C44.5711 5.9161 44.5805 5.92563 44.5805 5.94468C44.5805 5.96373 44.5711 5.97325 44.5522 5.97325C43.7185 6.55692 42.8009 6.76647 41.7994 6.6019C41.6351 6.7505 41.4652 6.9048 41.2896 7.05339C41.7044 7.00264 42.1179 7.01217 42.5301 7.08197C42.957 7.13799 43.3856 7.15894 43.8158 7.14483V7.19055C42.7989 7.69724 41.734 7.84012 40.6212 7.61918C40.4003 7.80206 40.1681 7.98494 39.9302 8.19068C40.5555 8.09694 41.1767 8.1198 41.7937 8.25926C42.185 8.39324 42.5872 8.46754 43.0002 8.48214C43.0168 8.48885 43.0251 8.50123 43.0251 8.51929C43.0251 8.53735 43.0168 8.54974 43.0002 8.55644C41.822 9.20224 39.9415 8.86505 39.2278 8.70503C39.0126 8.86505 38.7916 9.02507 38.5651 9.17938C39.2849 9.2002 39.9702 9.36594 40.6212 9.67658C41.1013 9.89947 41.6035 10.0442 42.1279 10.1109C40.6474 10.3408 39.2012 10.2037 37.7891 9.69944C37.4492 9.92805 37.098 10.1566 36.7412 10.3852C37.6262 10.3589 38.4683 10.538 39.2674 10.9225C39.8193 11.2102 40.399 11.4197 41.0064 11.5511V11.5968C39.2281 11.9523 37.5288 11.7199 35.9085 10.8996C35.5234 11.1396 35.1212 11.3739 34.7191 11.614C35.8645 11.6228 36.9218 11.9352 37.891 12.5512C38.3603 12.8303 38.8644 13.0093 39.4034 13.0884C39.4298 13.0884 39.443 13.1018 39.443 13.1285C39.443 13.1551 39.4298 13.1685 39.4034 13.1685C37.3835 13.4855 35.4615 13.1788 33.6372 12.2483L32.8498 12.6827C34.0711 12.9935 35.204 13.5041 36.2484 14.2143C36.6302 14.4465 37.0229 14.6579 37.4266 14.8487C37.4528 14.8489 37.4659 14.8622 37.4659 14.8887C37.4659 14.9151 37.4528 14.9285 37.4266 14.9287C35.384 14.9064 33.4959 14.3501 31.7623 13.2599C31.2865 13.5114 30.8051 13.7571 30.3123 13.9971C31.6838 14.1276 32.9319 14.5943 34.0563 15.3973C34.5092 15.7186 34.9831 16.0043 35.4781 16.2546C35.5326 16.2812 35.5529 16.3243 35.5389 16.3838C35.525 16.4433 35.4877 16.4726 35.4271 16.4717C32.8668 16.4717 30.1593 15.0773 29.1964 14.5343L27.905 15.1459C29.4503 15.3096 30.806 15.9097 31.9719 16.9461C32.3659 17.323 32.7945 17.6545 33.2577 17.9405C33.2859 17.9625 33.2952 17.9908 33.2856 18.0254C33.276 18.0601 33.2535 18.0794 33.218 18.0834C30.8277 18.1748 27.5198 16.506 26.336 15.8602L25.3561 16.2889C26.8916 16.6033 28.2133 17.3196 29.321 18.4377C29.9196 19.121 30.6012 19.7058 31.3658 20.1922V20.2322C29.8935 20.2003 28.4703 19.9168 27.0964 19.3818C25.7225 18.8467 24.4797 18.092 23.3679 17.1175L22.8015 17.3461C22.4729 17.4776 22.1388 17.6262 21.8046 17.7805C25.3221 18.6092 26.4096 19.9979 27.0836 20.8552C27.4909 21.3573 27.9648 21.784 28.5054 22.1353C28.5343 22.1582 28.5432 22.1873 28.532 22.2227C28.5207 22.258 28.4968 22.2765 28.4601 22.2782C24.5857 22.1525 21.2551 19.4207 20.2865 18.5749C19.7654 18.872 19.2443 19.1921 18.7289 19.5293C19.7876 19.6792 20.7759 20.0308 21.6937 20.584C22.6115 21.1373 23.3867 21.8487 24.0193 22.7183C24.5305 23.4714 25.1554 24.1115 25.8942 24.6385C25.9298 24.6669 25.9414 24.7031 25.9291 24.7471C25.9169 24.7912 25.8882 24.8159 25.8432 24.8214C22.3597 24.8557 18.0435 21.7753 16.8427 20.8666C16.2763 21.2781 15.7495 21.7067 15.2114 22.1468C16.3891 22.1065 17.5091 22.344 18.5712 22.8591C19.6333 23.3742 20.5166 24.1083 21.2211 25.0614C21.9276 25.8426 22.73 26.5056 23.6285 27.0502C23.6787 27.0858 23.6943 27.1331 23.6753 27.192C23.6564 27.2509 23.6162 27.2798 23.5548 27.2788C19.5898 27.1417 15.1604 24.3242 13.7443 23.3469C13.0137 23.987 12.3056 24.6442 11.6259 25.2957C16.2536 25.2214 19.924 28.0904 21.0682 29.0962C21.1434 29.1575 21.1646 29.2341 21.132 29.3258C21.0993 29.4176 21.0346 29.463 20.9379 29.462C17.1022 29.5434 13.5149 28.6309 10.1759 26.7245C8.13026 28.83 6.19497 31.034 4.37001 33.3368C4.32021 33.403 4.25413 33.4354 4.17176 33.4339H1.49824C1.38907 33.4354 1.31114 33.3863 1.26446 33.2867C1.21778 33.1871 1.22962 33.0952 1.29999 33.011C3.54612 30.3344 5.96664 27.8293 8.56156 25.4958C7.99513 23.7527 6.07495 17.0718 9.41686 11.9569C9.46941 11.8787 9.54152 11.8492 9.63319 11.8686C9.72485 11.8879 9.77924 11.944 9.79636 12.0369C10.1136 13.8371 11.1105 20.1408 10.1306 24.1356C10.814 23.5526 11.5277 22.9811 12.2716 22.4211C11.7675 20.9123 9.87 14.3343 13.5461 10.5853C13.5846 10.5453 13.6291 10.5367 13.6796 10.5593C13.7301 10.582 13.7536 10.6211 13.75 10.6767C13.6963 12.2089 13.7831 13.7329 14.0106 15.2487C14.3155 17.2946 14.2286 19.3235 13.75 21.3352C14.4524 20.8399 15.1698 20.356 15.9024 19.8836C15.285 18.2377 13.9992 13.7114 17.0976 9.90518C17.1299 9.8711 17.1676 9.86318 17.2107 9.88141C17.2538 9.89965 17.2746 9.93234 17.2732 9.97948C17.1634 11.0666 17.1747 12.1525 17.3072 13.237C17.6744 15.2673 17.5536 17.2676 16.9446 19.2378C17.4488 18.9463 17.9529 18.6663 18.4627 18.3863L18.9385 18.1405C18.7119 16.9061 18.0775 12.3112 20.5698 9.39655C20.5958 9.36944 20.6258 9.36375 20.6598 9.37947C20.6938 9.39519 20.7091 9.42184 20.7057 9.45941C20.6282 10.2597 20.6452 11.0579 20.7567 11.854C20.982 13.7159 20.8744 15.5581 20.4338 17.3804L22.1331 16.586C22.0255 15.443 21.7309 10.7053 24.1099 8.52787H24.1496C24.0281 9.18418 23.9922 9.84521 24.042 10.511C24.1043 11.9397 24.4838 13.94 23.957 15.7459L25.424 15.0944C25.3447 13.8543 25.2541 9.95091 27.027 8.1221C27.0512 8.08962 27.0814 8.08214 27.1177 8.09966C27.154 8.11717 27.1672 8.14561 27.1573 8.18497C27.0584 8.78288 27.015 9.38486 27.027 9.99091C27.1113 11.4949 27.0339 12.9903 26.7948 14.4772L28.1599 13.9057C28.0579 12.9513 27.871 9.94519 29.4513 7.74491C29.4875 7.70191 29.5317 7.6904 29.584 7.71036C29.6363 7.73033 29.662 7.76851 29.6609 7.82492C29.5711 8.58478 29.5465 9.34678 29.5872 10.1109C29.6651 11.1933 29.6046 12.2677 29.406 13.3342L30.5105 12.837C30.4312 11.9512 30.3236 9.08222 31.8076 7.26485C31.8381 7.2262 31.8753 7.21793 31.9191 7.24002C31.9628 7.26211 31.9786 7.29706 31.9662 7.34486C31.8343 7.95519 31.7815 8.57241 31.8076 9.19652C31.873 10.2456 31.8145 11.2877 31.632 12.3226L32.6913 11.8369C32.5758 10.9068 32.6345 9.98809 32.8674 9.08071C33.1003 8.17333 33.4909 7.34134 34.0393 6.58476C34.0578 6.55082 34.0845 6.5418 34.1195 6.55768C34.1545 6.57357 34.1656 6.59974 34.1526 6.6362C34.0379 7.31328 33.9813 7.99527 33.9827 8.68217C34.0313 9.57494 33.9483 10.4551 33.7335 11.3225L34.8663 10.751C34.753 10.1052 34.4811 7.69919 36.0898 5.93325H36.1294C36.014 6.48946 35.9687 7.05144 35.9935 7.61918C36.0593 8.51083 35.9951 9.39285 35.8009 10.2652C36.1634 10.0652 36.5146 9.86518 36.8658 9.65944C36.6685 8.938 36.6516 8.2123 36.8152 7.48232C36.9787 6.75235 37.3034 6.10454 37.7891 5.53891C37.6919 6.02224 37.6599 6.50992 37.6928 7.00196C37.7496 7.70681 37.7496 8.41166 37.6928 9.11651C37.9477 8.95649 38.2026 8.79647 38.4518 8.63074C38.2011 7.34744 38.4503 6.17205 39.1995 5.10457C39.2129 5.09007 39.2285 5.08726 39.2461 5.09615C39.2637 5.10504 39.2709 5.11928 39.2674 5.13886C39.1992 5.45593 39.1803 5.77597 39.2108 6.09898C39.3059 6.76383 39.3059 7.42868 39.2108 8.09352C39.4544 7.92207 39.6979 7.74491 39.9302 7.56774C39.8339 7.08768 39.6186 5.53891 40.6155 4.47592C40.6155 4.47592 40.6608 4.47592 40.6552 4.47592C40.6271 4.78263 40.6271 5.08933 40.6552 5.39604C40.7496 5.92182 40.7496 6.4476 40.6552 6.97338L41.1876 6.52761C41.0537 5.60671 41.2425 4.75898 41.754 3.98443C41.76 3.9707 41.7704 3.96384 41.7852 3.96384C41.8 3.96384 41.8104 3.9707 41.8164 3.98443C41.7882 4.2778 41.7882 4.57117 41.8164 4.86454C41.867 5.21697 41.867 5.56939 41.8164 5.92182L42.3091 5.44747C42.2118 4.73427 42.3308 4.0599 42.666 3.42436C42.6778 3.40112 42.696 3.39363 42.7206 3.40189C42.7452 3.41016 42.7553 3.42717 42.751 3.45293C42.7358 3.64503 42.7472 3.83553 42.7849 4.02443C42.8536 4.30025 42.8838 4.58028 42.8756 4.86454C42.9945 4.7331 43.1191 4.59593 43.2324 4.45877C43.0952 3.86666 43.1915 3.31611 43.5213 2.80713C43.5376 2.78517 43.5587 2.77852 43.5845 2.78721C43.6103 2.79589 43.6232 2.81396 43.6233 2.84142C43.6146 2.93858 43.6146 3.03573 43.6233 3.13289C43.653 3.39769 43.653 3.66248 43.6233 3.92728C43.7195 3.80726 43.8215 3.68153 43.9121 3.55009C43.8555 3.16146 43.8838 2.04704 45.753 1.21836C45.8002 1.12692 45.8691 1.10501 45.9598 1.15264C46.0504 1.20026 46.0721 1.26979 46.0249 1.36123Z" fill="white"/>
</svg>
